<svg xmlns="http://www.w3.org/2000/svg" viewBox="0 0 512 512"><path d="M256 0C114.5 0 0 114.5 0 256s114.5 256 256 256 256-114.5 256-256S397.5 0 256 0zm147.1 310.9c-7.4 25.1-20.5 48.4-40 66.1-18.6 16.8-41 27.9-65.2 33.5-27 6.5-54.9 6.5-81-.9-20.5-5.6-41-15.8-57.7-28.9-17.7-14-32.6-32.6-42.8-53.1-15.8-31.7-20.5-68-14-102.4 2.8-14 7.4-27 14-40 18.6-36.3 51.2-65.2 90.3-79.1 34.4-12.1 72.6-11.2 107.1.9 18.6 6.5 36.3 17.7 51.2 31.7-4.7 5.6-10.2 10.2-15.8 15.8l-28.9 28.9c-9.3-9.3-21.4-15.8-34.4-20.5-14.9-4.7-31.7-5.6-46.5-1.9-17.7 3.7-34.4 13-47.5 26.1-10.2 10.2-18.6 23.3-23.3 37.2-6.5 19.5-6.5 41.9 0 61.4s19.5 37.2 36.3 48.4c10.2 7.4 22.3 13 35.4 14.9 12.1 2.8 25.1 1.9 38.2 0 12.1-1.9 24.2-6.5 35.4-14 16.8-11.2 28.9-28.9 31.7-49.3H259v-61.4h148.9c4.5 29.8 2.6 58.7-4.8 86.6z" fill="#333"/></svg>